<svg xmlns="http://www.w3.org/2000/svg" enable-background="new 0 0 32 32" viewBox="0 0 32 32" id="tips"><path d="M4 14c0 0-1.9996 0-2 0-1.2317 0-1.31979 1.99997 0 2 0 0 1.98981 0 1.99996 0C5.2749 16 5.29783 14.00001 4 14zM30 14c0 0-1.99961 0-2 0-1.25699 0-1.31828 1.99997 0 2 0 0 1.99194 0 1.99998 0C31.26947 16 31.30034 14 30 14zM7.90339 6.90339c.35717-.34987.48709-.92697.02532-1.38874 0 0-1.11628-1.11628-1.12108-1.12108C5.90355 3.48948 4.47357 4.88763 5.39355 5.80762c0 0 1.11644 1.11644 1.12108 1.12108C6.96182 7.37588 7.54622 7.25326 7.90339 6.90339zM25.19238 4.39355c0 0-1.11766 1.11766-1.12109 1.12109-.88657.88657.48477 2.34333 1.41405 1.41407 0 0 1.11716-1.11716 1.12108-1.12108C27.50966 4.9044 26.11392 3.47202 25.19238 4.39355zM16 3.96512C16.5 3.96796 17 3.64909 17 3c0 0 0-1.99535 0-1.99999C17-.25722 15.00001-.31735 15 1c0 0 0 1.9908 0 1.99997C15 3.63772 15.5 3.96228 16 3.96512z"></path><circle cx="16" cy="18" r="1"></circle><path d="M16.98535,6.05518C11.75571,5.50336,7,9.74254,7,15c0,2.12842,0.75586,4.19092,2.12305,5.80273
		c0.7998,0.95361,1.35156,2.10205,1.64063,3.41211C10.86426,24.67334,11.27051,25,11.74023,25h8.51953
		c0.46777,0,0.87305-0.32373,0.97559-0.77979c0.29004-1.28809,0.87598-2.48828,1.69434-3.47168
		c1.66211-2.00391,2.37207-4.63916,1.94727-7.22607C24.25196,9.61182,20.93263,6.47169,16.98535,6.05518z M21.39063,19.4707
		c-0.85059,1.02246-1.49805,2.22998-1.89844,3.5293h-6.97852c-0.3916-1.30811-1.01465-2.47705-1.86133-3.48682
		C9.58692,18.25782,9.00001,16.65481,9,15.00004c-0.00002-3.19535,2.41253-6.21332,5.56317-6.818
		c2.68133-0.51461,5.5889,0.60406,7.18325,2.83178c0.59978,0.83806,0.99408,1.81132,1.1569,2.82846
		C23.23926,15.89111,22.70215,17.89014,21.39063,19.4707z"></path><path d="M16 11c-.55273 0-1 .44775-1 1v3c0 .55225.44727 1 1 1s1-.44775 1-1v-3C17 11.44775 16.55273 11 16 11zM20 26h-8c-.55273 0-1 .44775-1 1v2c0 1.6543 1.3457 3 3 3h4c1.6543 0 3-1.3457 3-3v-2C21 26.44775 20.55273 26 20 26zM18 30h-4c-.55176 0-1-.44873-1-1v-1h6v1C19 29.55127 18.55176 30 18 30z"></path></svg>